<svg width="current" height="current" viewBox="0 0 16 18" fill="none" xmlns="http://www.w3.org/2000/svg">
<path d="M6.2145 3.28561H9.78592C9.78592 2.81201 9.59779 2.35781 9.2629 2.02292C8.92801 1.68803 8.47381 1.4999 8.00021 1.4999C7.52661 1.4999 7.07241 1.68803 6.73752 2.02292C6.40263 2.35781 6.2145 2.81201 6.2145 3.28561ZM5.14307 3.28561C5.14307 2.52785 5.44409 1.80112 5.9799 1.2653C6.51572 0.729486 7.24245 0.428467 8.00021 0.428467C8.75797 0.428467 9.4847 0.729486 10.0205 1.2653C10.5563 1.80112 10.8574 2.52785 10.8574 3.28561H15.3216C15.4637 3.28561 15.6 3.34205 15.7004 3.44252C15.8009 3.54298 15.8574 3.67924 15.8574 3.82132C15.8574 3.9634 15.8009 4.09967 15.7004 4.20013C15.6 4.3006 15.4637 4.35704 15.3216 4.35704H14.3859L13.5166 14.7878C13.4534 15.5466 13.1073 16.2539 12.547 16.7695C11.9867 17.2851 11.2531 17.5713 10.4916 17.5713H5.50878C4.74735 17.5713 4.01374 17.2851 3.45343 16.7695C2.89312 16.2539 2.54702 15.5466 2.48378 14.7878L1.61449 4.35704H0.678781C0.5367 4.35704 0.400439 4.3006 0.299973 4.20013C0.199508 4.09967 0.143066 3.9634 0.143066 3.82132C0.143066 3.67924 0.199508 3.54298 0.299973 3.44252C0.400439 3.34205 0.5367 3.28561 0.678781 3.28561H5.14307ZM3.55164 14.6985C3.59249 15.1895 3.81637 15.6472 4.17889 15.9809C4.5414 16.3145 5.01608 16.4998 5.50878 16.4999H10.4916C10.9843 16.4998 11.459 16.3145 11.8215 15.9809C12.184 15.6472 12.4079 15.1895 12.4488 14.6985L13.3116 4.35704H2.6895L3.55164 14.6985ZM6.39307 6.85704C6.53515 6.85704 6.67141 6.91348 6.77187 7.01395C6.87234 7.11441 6.92878 7.25067 6.92878 7.39275V13.4642C6.92878 13.6063 6.87234 13.7425 6.77187 13.843C6.67141 13.9435 6.53515 13.9999 6.39307 13.9999C6.25099 13.9999 6.11473 13.9435 6.01426 13.843C5.91379 13.7425 5.85735 13.6063 5.85735 13.4642V7.39275C5.85735 7.25067 5.91379 7.11441 6.01426 7.01395C6.11473 6.91348 6.25099 6.85704 6.39307 6.85704ZM10.1431 7.39275C10.1431 7.25067 10.0866 7.11441 9.98616 7.01395C9.88569 6.91348 9.74943 6.85704 9.60735 6.85704C9.46527 6.85704 9.32901 6.91348 9.22855 7.01395C9.12808 7.11441 9.07164 7.25067 9.07164 7.39275V13.4642C9.07164 13.6063 9.12808 13.7425 9.22855 13.843C9.32901 13.9435 9.46527 13.9999 9.60735 13.9999C9.74943 13.9999 9.88569 13.9435 9.98616 13.843C10.0866 13.7425 10.1431 13.6063 10.1431 13.4642V7.39275Z" fill="#3758F9"/>
</svg>
