<svg width="21" height="24" viewBox="0 0 21 24" fill="none" xmlns="http://www.w3.org/2000/svg">
<path id="to-do-list 1 (Traced)" fill-rule="evenodd" clip-rule="evenodd" d="M4.68275 0.266244C4.41176 0.36101 4.17519 0.524073 4.03425 0.713194C3.81688 1.0049 3.77028 1.24709 3.77028 2.0849V2.85478L2.73438 2.85524C1.74937 2.85565 1.68638 2.86095 1.452 2.96331C1.31648 3.02246 1.12573 3.15842 1.02813 3.26534C0.731205 3.5906 0.699129 3.74694 0.699129 4.86818C0.699129 5.80195 0.705028 5.86659 0.800185 5.98005C0.939898 6.14663 1.18959 6.14663 1.3293 5.98005C1.42421 5.86691 1.43036 5.80154 1.43036 4.90348C1.43036 3.50319 1.39238 3.5405 2.81725 3.5405H3.77028V3.87504C3.77028 4.51179 4.02655 4.9523 4.52315 5.16912C4.99192 5.37383 5.62009 5.28647 5.98068 4.96638C6.24095 4.73538 6.36594 4.43079 6.39222 3.96336L6.41601 3.5405H7.77428H9.13261V3.87504C9.13261 4.31051 9.23362 4.61735 9.45786 4.86302C10.0726 5.53648 11.2742 5.36803 11.6485 4.55595C11.6916 4.46228 11.7383 4.19668 11.7525 3.96336L11.7783 3.5405H13.13H14.4816L14.5075 3.96336C14.5217 4.19668 14.5684 4.46228 14.6115 4.55595C14.9858 5.36803 16.1874 5.53648 16.8021 4.86302C17.0264 4.61735 17.1274 4.31051 17.1274 3.87504V3.5405H18.0804C18.8369 3.5405 19.0629 3.55481 19.1764 3.60985C19.4876 3.76075 19.4673 3.23234 19.4673 11.1874V18.4275L19.5801 18.5269C19.73 18.6589 19.9567 18.6561 20.0925 18.5205L20.1985 18.4147V11.1457C20.1985 3.07042 20.2228 3.65236 19.8695 3.26534C19.7719 3.15842 19.5812 3.02246 19.4456 2.96331C19.2114 2.861 19.1481 2.85565 18.1671 2.85524L17.135 2.85478L17.119 1.99763C17.1011 1.04197 17.0567 0.875526 16.7396 0.578199C16.4626 0.318404 16.2235 0.228301 15.8111 0.228301C15.3988 0.228301 15.1597 0.318404 14.8827 0.578199C14.5656 0.875526 14.5212 1.04197 14.5033 1.99763L14.4873 2.85478H13.13H11.7726L11.7566 1.99763C11.7388 1.04197 11.6943 0.875526 11.3773 0.578199C11.1002 0.318404 10.8612 0.228301 10.4488 0.228301C10.0365 0.228301 9.79739 0.318404 9.52036 0.578199C9.2033 0.875526 9.15884 1.04197 9.141 1.99763L9.12501 2.85478H7.76765H6.4103L6.39431 1.99763C6.37647 1.04197 6.33201 0.875526 6.01495 0.578199C5.67474 0.259158 5.09268 0.122837 4.68275 0.266244ZM5.32877 0.947527C5.39497 0.978978 5.49919 1.07429 5.56032 1.15932C5.67006 1.31205 5.67147 1.33189 5.67147 2.72587C5.67147 4.25378 5.65543 4.36427 5.41174 4.51403C5.23337 4.62361 4.88789 4.61552 4.72863 4.49803C4.51355 4.3394 4.49434 4.17561 4.51067 2.64125L4.52588 1.21628L4.64775 1.0934C4.84938 0.890064 5.09624 0.837172 5.32877 0.947527ZM10.6911 0.947527C10.7573 0.978978 10.8615 1.07429 10.9227 1.15932C11.0324 1.31205 11.0338 1.33189 11.0338 2.72587C11.0338 4.25378 11.0178 4.36427 10.7741 4.51403C10.6132 4.61282 10.2613 4.61461 10.1133 4.51737C9.88119 4.36496 9.86384 4.24034 9.86384 2.72587C9.86384 1.33189 9.86525 1.31205 9.97498 1.15932C10.1574 0.905607 10.4317 0.824463 10.6911 0.947527ZM16.0534 0.947527C16.1196 0.978978 16.2239 1.07429 16.285 1.15932C16.3947 1.31205 16.3961 1.33189 16.3961 2.72587C16.3961 4.24034 16.3788 4.36496 16.1467 4.51737C15.9986 4.61461 15.6467 4.61282 15.4859 4.51403C15.2422 4.36427 15.2262 4.25378 15.2262 2.72587C15.2262 1.33189 15.2276 1.31205 15.3373 1.15932C15.5197 0.905607 15.794 0.824463 16.0534 0.947527ZM0.909478 7.05983C0.850931 7.0825 0.779613 7.14202 0.751046 7.19208C0.714923 7.25544 0.699129 9.60814 0.699129 14.9351C0.699129 23.5736 0.665395 22.8504 1.08678 23.2456C1.50899 23.6416 0.674804 23.6092 10.4488 23.6092C20.2228 23.6092 19.3887 23.6416 19.8109 23.2456C20.1818 22.8977 20.1985 22.8095 20.1985 21.198C20.1985 20.3793 20.1789 19.7745 20.1508 19.7252C20.038 19.5277 19.5822 19.5414 19.499 19.745C19.4815 19.7875 19.4673 20.4285 19.4673 21.1694C19.4673 22.2841 19.4545 22.5397 19.3933 22.6507C19.232 22.9433 19.8828 22.9234 10.4488 22.9234C2.87087 22.9234 1.8475 22.9153 1.72124 22.8541C1.40964 22.703 1.43036 23.271 1.43036 14.885C1.43036 7.68342 1.42553 7.24817 1.34505 7.15894C1.24292 7.04575 1.05587 7.00319 0.909478 7.05983ZM6.81579 7.10431C6.76149 7.1247 6.2702 7.64822 5.72402 8.26765C5.17789 8.88704 4.71937 9.3829 4.70513 9.36955C4.6909 9.3562 4.56795 9.18605 4.43194 8.99149C4.20478 8.66646 4.16997 8.63652 4.00462 8.62363C3.78632 8.60662 3.62404 8.73481 3.62404 8.92425C3.62404 9.00228 3.77603 9.28411 4.02031 9.65906C4.45091 10.32 4.5604 10.4096 4.80087 10.2979C4.9109 10.2468 5.651 9.4395 6.97257 7.92909C7.33608 7.51363 7.37947 7.39254 7.22279 7.23066C7.09093 7.09434 6.95468 7.05206 6.81579 7.10431ZM8.49859 8.38322C7.47511 8.67515 7.32819 9.93307 8.2663 10.3715L8.51804 10.4891H12.5855C15.6484 10.4891 16.7025 10.4753 16.8536 10.4332C17.1174 10.3597 17.4769 10.0226 17.5553 9.77522C17.6942 9.33645 17.5429 8.83378 17.1977 8.58683C16.8488 8.33727 16.9039 8.3402 12.5982 8.34445C10.4106 8.3466 8.56576 8.36406 8.49859 8.38322ZM16.6553 9.0794C16.9128 9.20804 16.9651 9.50253 16.7639 9.69115L16.6443 9.80338H12.6247H8.60505L8.47451 9.65792C8.37326 9.54505 8.35049 9.48201 8.37296 9.37655C8.40728 9.21581 8.48294 9.12146 8.61905 9.06976C8.78362 9.00717 16.5294 9.01654 16.6553 9.0794ZM6.81579 11.63C6.76149 11.6504 6.2702 12.174 5.72402 12.7934C5.17789 13.4128 4.71937 13.9086 4.70513 13.8953C4.6909 13.8819 4.56795 13.7118 4.43194 13.5172C4.20478 13.1922 4.16997 13.1623 4.00462 13.1494C3.78632 13.1324 3.62404 13.2605 3.62404 13.45C3.62404 13.528 3.77603 13.8098 4.02031 14.1848C4.4512 14.8462 4.55996 14.9351 4.80209 14.8236C4.90817 14.7748 5.80577 13.7927 7.09341 12.3166C7.33594 12.0386 7.36675 11.9052 7.22279 11.7564C7.09093 11.6201 6.95468 11.5778 6.81579 11.63ZM8.62075 12.8967C8.19918 12.9883 7.92648 13.1678 7.77063 13.4562C7.47872 13.9965 7.71169 14.6683 8.27756 14.9177C8.49674 15.0144 8.51799 15.0148 12.6298 15.0138C16.551 15.0129 16.7717 15.0085 16.9567 14.928C17.364 14.7508 17.6157 14.3775 17.6138 13.9534C17.6119 13.5396 17.3866 13.2017 16.9751 12.9959L16.7617 12.8891L12.74 12.8823C10.528 12.8786 8.67438 12.8851 8.62075 12.8967ZM16.766 13.7031C16.9197 13.8707 16.9189 14.0716 16.7639 14.2169L16.6443 14.3291H12.6203C8.67867 14.3291 8.59443 14.3273 8.5001 14.2388C8.37238 14.1191 8.33577 13.9652 8.39831 13.811C8.50488 13.5482 8.40694 13.5538 12.7077 13.5648L16.6484 13.5748L16.766 13.7031ZM6.80195 16.1889C6.76685 16.202 6.2974 16.7096 5.75873 17.3167C5.22006 17.9238 4.76407 18.437 4.74535 18.457C4.72668 18.4771 4.60476 18.3293 4.47445 18.1286C4.17236 17.6634 4.00227 17.5768 3.75249 17.761C3.54082 17.9172 3.57899 18.0686 3.98741 18.6929C4.41703 19.3496 4.48376 19.415 4.70411 19.3952C4.85201 19.3819 4.97685 19.2578 6.0522 18.0548C6.70396 17.3257 7.25843 16.6801 7.28431 16.6202C7.39892 16.3552 7.09142 16.0802 6.80195 16.1889ZM8.27951 17.5305C7.8595 17.7226 7.57895 18.2152 7.647 18.6409C7.71739 19.0811 8.08964 19.4467 8.56099 19.5384C8.74092 19.5734 10.0342 19.585 12.7909 19.5761L16.7617 19.5634L16.9751 19.4567C17.3866 19.2508 17.6119 18.913 17.6138 18.4991C17.6157 18.0751 17.364 17.7017 16.9567 17.5246C16.7715 17.444 16.553 17.4398 12.6181 17.4405C8.60954 17.4413 8.46817 17.4442 8.27951 17.5305ZM16.7639 18.2356C16.9189 18.3809 16.9197 18.5818 16.766 18.7494L16.6484 18.8777L12.7203 18.8899C9.355 18.9004 8.76773 18.8925 8.6209 18.835C8.33957 18.7248 8.28029 18.4198 8.5001 18.2137C8.59443 18.1252 8.67867 18.1234 12.6203 18.1234H16.6443L16.7639 18.2356Z" fill="white"/>
</svg>
